<svg width="28" height="28" viewBox="0 0 28 28" fill="none" xmlns="http://www.w3.org/2000/svg">
<path d="M14.6667 21.4298C14.6667 21.8891 14.72 22.3349 14.7867 22.7807H2.66667C1.95942 22.7807 1.28115 22.4961 0.781049 21.9894C0.280951 21.4827 0 20.7955 0 20.079V3.86843C0 2.36895 1.18667 1.16667 2.66667 1.16667H10.6667L13.3333 3.86843H24C24.7072 3.86843 25.3855 4.15307 25.8856 4.65975C26.3857 5.16643 26.6667 5.85363 26.6667 6.57018V14.4188C25.4933 13.7298 24.1333 13.3246 22.6667 13.3246C18.2533 13.3246 14.6667 16.9584 14.6667 21.4298Z" fill="white"/>
<path d="M23.6667 16V20.0526H27.6667V22.7544H23.6667V26.807H21V22.7544H17V20.0526H21V16H23.6667Z" fill="#7B3DFF"/>
</svg>
