<svg width="28" height="28" viewBox="0 0 28 28" fill="none" xmlns="http://www.w3.org/2000/svg">
<path d="M10.1523 0.0611215C10.0034 0.00661095 9.84327 -0.0118307 9.68552 0.00737426C9.52776 0.0265792 9.37711 0.0828591 9.24644 0.171401C9.11578 0.259943 9.00899 0.378112 8.9352 0.515804C8.86142 0.653495 8.82284 0.806612 8.82276 0.962061V16.5257C7.91323 15.8137 6.7873 15.4177 5.62231 15.4002C4.45731 15.3826 3.31945 15.7445 2.38794 16.4289C1.45643 17.1132 0.7842 18.0811 0.477124 19.1801C0.170047 20.2791 0.245575 21.4468 0.691812 22.4992C1.13805 23.5516 1.92964 24.429 2.94191 24.9931C3.95417 25.5573 5.1296 25.7761 6.28304 25.6152C7.43649 25.4543 8.50243 24.9227 9.31296 24.1043C10.1235 23.2859 10.6326 22.227 10.76 21.0946C10.7808 21.0162 10.7914 20.9356 10.7915 20.8546V8.76763L19.9619 12.1301C20.1108 12.1846 20.271 12.2031 20.4287 12.1839C20.5865 12.1647 20.7372 12.1084 20.8678 12.0198C20.9985 11.9313 21.1053 11.8131 21.1791 11.6754C21.2528 11.5377 21.2914 11.3846 21.2915 11.2292V7.03634C21.2917 6.18705 21.0268 5.35792 20.5322 4.65981C20.0375 3.9617 19.3367 3.42787 18.5234 3.12971L10.1523 0.0611215Z" fill="white"/>
<path d="M23.0002 16.3333V20.3859H27.0002V23.0877H23.0002V27.1403H20.3335V23.0877H16.3335V20.3859H20.3335V16.3333H23.0002Z" fill="#7B3DFF"/>
</svg>
